<svg xmlns="http://www.w3.org/2000/svg" width="10" height="11.938" viewBox="0 0 10 11.938">
  <metadata><?xpacket begin="﻿" id="W5M0MpCehiHzreSzNTczkc9d"?>
<x:xmpmeta xmlns:x="adobe:ns:meta/" x:xmptk="Adobe XMP Core 5.6-c138 79.159824, 2016/09/14-01:09:01        ">
   <rdf:RDF xmlns:rdf="http://www.w3.org/1999/02/22-rdf-syntax-ns#">
      <rdf:Description rdf:about=""/>
   </rdf:RDF>
</x:xmpmeta>
                                                                                                    
                                                                                                    
                                                                                                    
                                                                                                    
                                                                                                    
                                                                                                    
                                                                                                    
                                                                                                    
                                                                                                    
                                                                                                    
                                                                                                    
                                                                                                    
                                                                                                    
                                                                                                    
                                                                                                    
                                                                                                    
                                                                                                    
                                                                                                    
                                                                                                    
                                                                                                    
                           
<?xpacket end="w"?></metadata>
<defs>
    <style>
      .cls-1 {
        fill: #33c7fd;
        fill-rule: evenodd;
      }
    </style>
  </defs>
  <path id="Р" class="cls-1" d="M694.082,51.983V46.972h2.552A2.818,2.818,0,0,0,698,46.635a3.425,3.425,0,0,0,1.064-.893,4.218,4.218,0,0,0,.683-1.272,4.559,4.559,0,0,0,.243-1.475c0-.483-0.086.037-0.258-0.441a4.412,4.412,0,0,0-.714-1.281,3.626,3.626,0,0,0-1.086-.91,2.812,2.812,0,0,0-1.374-.346h-4.571V51.983h2.1Zm0-9.926h2.339a1.243,1.243,0,0,1,.539.127,1.282,1.282,0,0,1,.463.379c0.132,0.169.238-.626,0.319-0.385a2.563,2.563,0,0,1,.122.817,2.328,2.328,0,0,1-.387,1.416,1.163,1.163,0,0,1-.965.522h-2.43V42.057ZM690,45h4v2h-4V45Zm0,3h8v2h-8V48Z" transform="translate(-690 -40.031)"/>
</svg>
